<?xml version="1.0" encoding="UTF-8"?>
<!DOCTYPE svg PUBLIC "-//W3C//DTD SVG 1.1//EN" "http://www.w3.org/Graphics/SVG/1.1/DTD/svg11.dtd">
<svg xmlns="http://www.w3.org/2000/svg" version="1.1" width="512px" height="512px" style="shape-rendering:geometricPrecision; text-rendering:geometricPrecision; image-rendering:optimizeQuality; fill-rule:evenodd; clip-rule:evenodd" xmlns:xlink="http://www.w3.org/1999/xlink">
<g><path style="opacity:0.999" fill="#fea02c" d="M 57.5,-0.5 C 80.5,-0.5 103.5,-0.5 126.5,-0.5C 84.1897,28.1336 41.8563,56.8003 -0.5,85.5C -0.5,76.1667 -0.5,66.8333 -0.5,57.5C 7.16667,26.5 26.5,7.16667 57.5,-0.5 Z"/></g>
<g><path style="opacity:1" fill="#fd982c" d="M 126.5,-0.5 C 138.167,-0.5 149.833,-0.5 161.5,-0.5C 107.853,36.3259 53.8534,72.6592 -0.5,108.5C -0.5,100.833 -0.5,93.1667 -0.5,85.5C 41.8563,56.8003 84.1897,28.1336 126.5,-0.5 Z"/></g>
<g><path style="opacity:1" fill="#fd922c" d="M 161.5,-0.5 C 170.167,-0.5 178.833,-0.5 187.5,-0.5C 125.216,42.3156 62.5493,84.6489 -0.5,126.5C -0.5,120.5 -0.5,114.5 -0.5,108.5C 53.8534,72.6592 107.853,36.3259 161.5,-0.5 Z"/></g>
<g><path style="opacity:1" fill="#fc8c2c" d="M 187.5,-0.5 C 195.5,-0.5 203.5,-0.5 211.5,-0.5C 141.187,47.6591 70.5204,95.3257 -0.5,142.5C -0.5,137.167 -0.5,131.833 -0.5,126.5C 62.5493,84.6489 125.216,42.3156 187.5,-0.5 Z"/></g>
<g><path style="opacity:1" fill="#fb862c" d="M 211.5,-0.5 C 219.167,-0.5 226.833,-0.5 234.5,-0.5C 156.377,52.7346 78.0432,105.735 -0.5,158.5C -0.5,153.167 -0.5,147.833 -0.5,142.5C 70.5204,95.3257 141.187,47.6591 211.5,-0.5 Z"/></g>
<g><path style="opacity:1" fill="#fa7f2c" d="M 234.5,-0.5 C 242.833,-0.5 251.167,-0.5 259.5,-0.5C 173.187,58.3259 86.5201,116.659 -0.5,174.5C -0.5,169.167 -0.5,163.833 -0.5,158.5C 78.0432,105.735 156.377,52.7346 234.5,-0.5 Z"/></g>
<g><path style="opacity:1" fill="#fa792c" d="M 259.5,-0.5 C 266.167,-0.5 272.833,-0.5 279.5,-0.5C 204.167,50.8333 128.833,102.167 53.5,153.5C 47.5,153.5 41.5,153.5 35.5,153.5C 35.5,157.5 35.5,161.5 35.5,165.5C 23.5,173.167 11.5,180.833 -0.5,188.5C -0.5,183.833 -0.5,179.167 -0.5,174.5C 86.5201,116.659 173.187,58.3259 259.5,-0.5 Z"/></g>
<g><path style="opacity:1" fill="#f9732c" d="M 279.5,-0.5 C 286.167,-0.5 292.833,-0.5 299.5,-0.5C 223.463,51.525 147.13,103.192 70.5,154.5C 65.0247,153.511 59.358,153.178 53.5,153.5C 128.833,102.167 204.167,50.8333 279.5,-0.5 Z"/></g>
<g><path style="opacity:1" fill="#f86d2c" d="M 299.5,-0.5 C 306.5,-0.5 313.5,-0.5 320.5,-0.5C 237.204,55.8204 153.87,112.154 70.5,168.5C 70.5,163.833 70.5,159.167 70.5,154.5C 147.13,103.192 223.463,51.525 299.5,-0.5 Z"/></g>
<g><path style="opacity:1" fill="#f7662c" d="M 320.5,-0.5 C 331.833,-0.5 343.167,-0.5 354.5,-0.5C 256.893,65.1087 159.56,131.109 62.5,197.5C 53.5,197.5 44.5,197.5 35.5,197.5C 35.5,203.5 35.5,209.5 35.5,215.5C 23.228,223.108 11.228,231.108 -0.5,239.5C -0.5,231.833 -0.5,224.167 -0.5,216.5C 20.7105,202.401 41.7105,188.068 62.5,173.5C 65.1667,173.5 67.8333,173.5 70.5,173.5C 70.5,171.833 70.5,170.167 70.5,168.5C 153.87,112.154 237.204,55.8204 320.5,-0.5 Z"/></g>
<g><path style="opacity:1" fill="#f7602c" d="M 354.5,-0.5 C 364.5,-0.5 374.5,-0.5 384.5,-0.5C 280.129,70.5251 175.463,141.192 70.5,211.5C 70.5,206.833 70.5,202.167 70.5,197.5C 67.8333,197.5 65.1667,197.5 62.5,197.5C 159.56,131.109 256.893,65.1087 354.5,-0.5 Z"/></g>
<g><path style="opacity:1" fill="#f65b2c" d="M 384.5,-0.5 C 394.833,-0.5 405.167,-0.5 415.5,-0.5C 360.677,36.8037 305.677,73.9703 250.5,111C 253.365,111.183 256.031,111.683 258.5,112.5C 248.868,110.986 241.534,114.319 236.5,122.5C 236.631,121.761 236.464,121.094 236,120.5C 176.854,160.98 117.687,201.313 58.5,241.5C 50.8333,241.5 43.1667,241.5 35.5,241.5C 35.5,246.5 35.5,251.5 35.5,256.5C 23.5,264.5 11.5,272.5 -0.5,280.5C -0.5,266.833 -0.5,253.167 -0.5,239.5C 11.228,231.108 23.228,223.108 35.5,215.5C 46.7854,217.478 58.4521,218.145 70.5,217.5C 70.5,215.5 70.5,213.5 70.5,211.5C 175.463,141.192 280.129,70.5251 384.5,-0.5 Z"/></g>
<g><path style="opacity:1" fill="#f5542c" d="M 415.5,-0.5 C 425.833,-0.5 436.167,-0.5 446.5,-0.5C 387.833,39.5 329.167,79.5 270.5,119.5C 267.129,116.146 263.129,113.813 258.5,112.5C 256.031,111.683 253.365,111.183 250.5,111C 305.677,73.9703 360.677,36.8037 415.5,-0.5 Z"/></g>
<g><path style="opacity:0.997" fill="#f54e2d" d="M 446.5,-0.5 C 449.167,-0.5 451.833,-0.5 454.5,-0.5C 461.36,1.01028 468.027,3.34362 474.5,6.5C 409.011,51.137 343.344,95.637 277.5,140C 276.773,141.399 276.273,142.899 276,144.5C 275.5,152.493 275.334,160.493 275.5,168.5C 275.5,175.167 275.5,181.833 275.5,188.5C 275.829,201.011 275.495,213.345 274.5,225.5C 274.667,193.165 274.5,160.832 274,128.5C 273.362,125.236 272.196,122.236 270.5,119.5C 329.167,79.5 387.833,39.5 446.5,-0.5 Z"/></g>
<g><path style="opacity:0.997" fill="#f4472c" d="M 474.5,6.5 C 481.045,9.71454 486.711,14.0479 491.5,19.5C 420.689,66.7421 350.023,114.242 279.5,162C 277.403,163.77 276.069,165.937 275.5,168.5C 275.334,160.493 275.5,152.493 276,144.5C 276.273,142.899 276.773,141.399 277.5,140C 343.344,95.637 409.011,51.137 474.5,6.5 Z"/></g>
<g><path style="opacity:0.998" fill="#f3412e" d="M 491.5,19.5 C 496.781,24.0604 501.114,29.3937 504.5,35.5C 429.023,86.0756 353.689,136.909 278.5,188C 277.552,188.483 276.552,188.649 275.5,188.5C 275.5,181.833 275.5,175.167 275.5,168.5C 276.069,165.937 277.403,163.77 279.5,162C 350.023,114.242 420.689,66.7421 491.5,19.5 Z"/></g>
<g><path style="opacity:0.997" fill="#f33b31" d="M 504.5,35.5 C 507.153,41.1259 509.486,46.7926 511.5,52.5C 511.5,54.8333 511.5,57.1667 511.5,59.5C 450.399,100.086 389.399,140.919 328.5,182C 324.838,184.632 321.505,187.466 318.5,190.5C 314.813,191.176 311.48,192.676 308.5,195C 298.137,205.697 287.471,216.03 276.5,226C 275.563,226.692 274.897,226.525 274.5,225.5C 275.495,213.345 275.829,201.011 275.5,188.5C 276.552,188.649 277.552,188.483 278.5,188C 353.689,136.909 429.023,86.0756 504.5,35.5 Z"/></g>
<g><path style="opacity:1" fill="#f23435" d="M 511.5,59.5 C 511.5,73.5 511.5,87.5 511.5,101.5C 455.799,138.441 400.299,175.775 345,213.5C 345.03,210.639 344.197,208.305 342.5,206.5C 338.933,194.705 330.933,189.372 318.5,190.5C 321.505,187.466 324.838,184.632 328.5,182C 389.399,140.919 450.399,100.086 511.5,59.5 Z"/></g>
<g><path style="opacity:1" fill="#f2303c" d="M 511.5,101.5 C 511.5,112.5 511.5,123.5 511.5,134.5C 501.691,140.574 492.024,146.908 482.5,153.5C 470.833,153.5 459.167,153.5 447.5,153.5C 447.5,160.167 447.5,166.833 447.5,173.5C 449.167,173.5 450.833,173.5 452.5,173.5C 370.833,228.833 289.167,284.167 207.5,339.5C 197.833,339.5 188.167,339.5 178.5,339.5C 173.483,337.982 170.316,334.648 169,329.5C 168.5,321.173 168.334,312.84 168.5,304.5C 169.329,312.323 169.829,320.323 170,328.5C 190.081,314.876 210.247,301.376 230.5,288C 231.252,287.329 231.586,286.496 231.5,285.5C 235.631,289.13 239.631,292.963 243.5,297C 251.908,301.951 259.908,301.284 267.5,295C 291,271.5 314.5,248 338,224.5C 341.908,219.147 343.408,213.147 342.5,206.5C 344.197,208.305 345.03,210.639 345,213.5C 400.299,175.775 455.799,138.441 511.5,101.5 Z"/></g>
<g><path style="opacity:1" fill="#fffcfc" d="M 258.5,112.5 C 263.129,113.813 267.129,116.146 270.5,119.5C 272.196,122.236 273.362,125.236 274,128.5C 274.5,160.832 274.667,193.165 274.5,225.5C 274.897,226.525 275.563,226.692 276.5,226C 287.471,216.03 298.137,205.697 308.5,195C 311.48,192.676 314.813,191.176 318.5,190.5C 330.933,189.372 338.933,194.705 342.5,206.5C 343.408,213.147 341.908,219.147 338,224.5C 314.5,248 291,271.5 267.5,295C 259.908,301.284 251.908,301.951 243.5,297C 239.631,292.963 235.631,289.13 231.5,285.5C 223.526,277.861 215.526,270.194 207.5,262.5C 202.5,256.833 197.167,251.5 191.5,246.5C 187.167,241.833 182.833,237.167 178.5,232.5C 174.071,228.407 170.404,223.741 167.5,218.5C 163.251,205.87 167.251,196.703 179.5,191C 186.696,189.56 193.362,190.727 199.5,194.5C 210.5,205.167 221.5,215.833 232.5,226.5C 232.56,227.043 232.893,227.376 233.5,227.5C 234.5,195.507 234.833,163.507 234.5,131.5C 234.405,128.308 235.071,125.308 236.5,122.5C 241.534,114.319 248.868,110.986 258.5,112.5 Z"/></g>
<g><path style="opacity:1" fill="#f5542c" d="M 236.5,122.5 C 235.071,125.308 234.405,128.308 234.5,131.5C 233.508,139.316 233.174,147.316 233.5,155.5C 232.677,152.023 232.177,148.356 232,144.5C 178.285,181.055 124.452,217.388 70.5,253.5C 70.5,249.5 70.5,245.5 70.5,241.5C 66.5,241.5 62.5,241.5 58.5,241.5C 117.687,201.313 176.854,160.98 236,120.5C 236.464,121.094 236.631,121.761 236.5,122.5 Z"/></g>
<g><path style="opacity:1" fill="#f54f2c" d="M 233.5,155.5 C 233.5,164.167 233.5,172.833 233.5,181.5C 232.677,178.023 232.177,174.356 232,170.5C 221.5,177.667 211,184.833 200.5,192C 199.748,192.671 199.414,193.504 199.5,194.5C 193.362,190.727 186.696,189.56 179.5,191C 167.251,196.703 163.251,205.87 167.5,218.5C 166.399,217.2 165.066,216.7 163.5,217C 127.768,241.19 92.1009,265.356 56.5,289.5C 49.5,289.5 42.5,289.5 35.5,289.5C 35.5,294.167 35.5,298.833 35.5,303.5C 23.5,311.5 11.5,319.5 -0.5,327.5C -0.5,311.833 -0.5,296.167 -0.5,280.5C 11.5,272.5 23.5,264.5 35.5,256.5C 35.5,258.167 35.5,259.833 35.5,261.5C 47.1667,261.5 58.8333,261.5 70.5,261.5C 70.5,258.833 70.5,256.167 70.5,253.5C 124.452,217.388 178.285,181.055 232,144.5C 232.177,148.356 232.677,152.023 233.5,155.5 Z"/></g>
<g><path style="opacity:1" fill="#f22a43" d="M 511.5,134.5 C 511.5,151.167 511.5,167.833 511.5,184.5C 501.691,190.574 492.024,196.908 482.5,203.5C 482.5,201.5 482.5,199.5 482.5,197.5C 470.833,197.5 459.167,197.5 447.5,197.5C 447.5,199.833 447.5,202.167 447.5,204.5C 380.451,249.018 313.784,294.018 247.5,339.5C 240.167,339.5 232.833,339.5 225.5,339.5C 307.107,284.558 388.441,229.224 469.5,173.5C 473.833,173.5 478.167,173.5 482.5,173.5C 482.5,166.833 482.5,160.167 482.5,153.5C 492.024,146.908 501.691,140.574 511.5,134.5 Z"/></g>
<g><path style="opacity:1" fill="#fefffe" d="M 53.5,153.5 C 59.358,153.178 65.0247,153.511 70.5,154.5C 70.5,159.167 70.5,163.833 70.5,168.5C 70.5,170.167 70.5,171.833 70.5,173.5C 67.8333,173.5 65.1667,173.5 62.5,173.5C 53.5,173.5 44.5,173.5 35.5,173.5C 35.5,170.833 35.5,168.167 35.5,165.5C 35.5,161.5 35.5,157.5 35.5,153.5C 41.5,153.5 47.5,153.5 53.5,153.5 Z"/></g>
<g><path style="opacity:1" fill="#fefffe" d="M 482.5,153.5 C 482.5,160.167 482.5,166.833 482.5,173.5C 478.167,173.5 473.833,173.5 469.5,173.5C 463.833,173.5 458.167,173.5 452.5,173.5C 450.833,173.5 449.167,173.5 447.5,173.5C 447.5,166.833 447.5,160.167 447.5,153.5C 459.167,153.5 470.833,153.5 482.5,153.5 Z"/></g>
<g><path style="opacity:1" fill="#fbc2b9" d="M 234.5,131.5 C 234.833,163.507 234.5,195.507 233.5,227.5C 232.893,227.376 232.56,227.043 232.5,226.5C 233.496,211.676 233.829,196.676 233.5,181.5C 233.5,172.833 233.5,164.167 233.5,155.5C 233.174,147.316 233.508,139.316 234.5,131.5 Z"/></g>
<g><path style="opacity:1" fill="#f4472d" d="M 233.5,181.5 C 233.829,196.676 233.496,211.676 232.5,226.5C 221.5,215.833 210.5,205.167 199.5,194.5C 199.414,193.504 199.748,192.671 200.5,192C 211,184.833 221.5,177.667 232,170.5C 232.177,174.356 232.677,178.023 233.5,181.5 Z"/></g>
<g><path style="opacity:1" fill="#f86f2c" d="M 35.5,165.5 C 35.5,168.167 35.5,170.833 35.5,173.5C 44.5,173.5 53.5,173.5 62.5,173.5C 41.7105,188.068 20.7105,202.401 -0.5,216.5C -0.5,207.167 -0.5,197.833 -0.5,188.5C 11.5,180.833 23.5,173.167 35.5,165.5 Z"/></g>
<g><path style="opacity:1" fill="#f22c3f" d="M 452.5,173.5 C 458.167,173.5 463.833,173.5 469.5,173.5C 388.441,229.224 307.107,284.558 225.5,339.5C 219.5,339.5 213.5,339.5 207.5,339.5C 289.167,284.167 370.833,228.833 452.5,173.5 Z"/></g>
<g><path style="opacity:1" fill="#f2274e" d="M 511.5,184.5 C 511.5,198.833 511.5,213.167 511.5,227.5C 502.004,234.082 492.338,240.415 482.5,246.5C 482.5,244.833 482.5,243.167 482.5,241.5C 470.833,241.5 459.167,241.5 447.5,241.5C 447.5,244.833 447.5,248.167 447.5,251.5C 419.976,270.092 392.31,288.425 364.5,306.5C 361.304,296.734 354.97,293.734 345.5,297.5C 345.414,296.504 345.748,295.671 346.5,295C 385.011,269.304 423.344,243.47 461.5,217.5C 468.5,217.5 475.5,217.5 482.5,217.5C 482.5,212.833 482.5,208.167 482.5,203.5C 492.024,196.908 501.691,190.574 511.5,184.5 Z"/></g>
<g><path style="opacity:1" fill="#fefffe" d="M 62.5,197.5 C 65.1667,197.5 67.8333,197.5 70.5,197.5C 70.5,202.167 70.5,206.833 70.5,211.5C 70.5,213.5 70.5,215.5 70.5,217.5C 58.4521,218.145 46.7854,217.478 35.5,215.5C 35.5,209.5 35.5,203.5 35.5,197.5C 44.5,197.5 53.5,197.5 62.5,197.5 Z"/></g>
<g><path style="opacity:1" fill="#fefffe" d="M 482.5,203.5 C 482.5,208.167 482.5,212.833 482.5,217.5C 475.5,217.5 468.5,217.5 461.5,217.5C 456.833,217.5 452.167,217.5 447.5,217.5C 447.5,213.167 447.5,208.833 447.5,204.5C 447.5,202.167 447.5,199.833 447.5,197.5C 459.167,197.5 470.833,197.5 482.5,197.5C 482.5,199.5 482.5,201.5 482.5,203.5 Z"/></g>
<g><path style="opacity:1" fill="#f22947" d="M 447.5,204.5 C 447.5,208.833 447.5,213.167 447.5,217.5C 452.167,217.5 456.833,217.5 461.5,217.5C 423.344,243.47 385.011,269.304 346.5,295C 345.748,295.671 345.414,296.504 345.5,297.5C 344.448,297.351 343.448,297.517 342.5,298C 322.167,311.667 301.833,325.333 281.5,339C 270.172,339.5 258.838,339.667 247.5,339.5C 313.784,294.018 380.451,249.018 447.5,204.5 Z"/></g>
<g><path style="opacity:1" fill="#f4472d" d="M 167.5,218.5 C 170.404,223.741 174.071,228.407 178.5,232.5C 177.127,232.343 175.793,232.51 174.5,233C 139.948,256.435 105.282,279.602 70.5,302.5C 70.5,298.167 70.5,293.833 70.5,289.5C 65.8333,289.5 61.1667,289.5 56.5,289.5C 92.1009,265.356 127.768,241.19 163.5,217C 165.066,216.7 166.399,217.2 167.5,218.5 Z"/></g>
<g><path style="opacity:1" fill="#f2255a" d="M 511.5,227.5 C 511.5,233.5 511.5,239.5 511.5,245.5C 460.942,279.366 410.442,313.366 360,347.5C 359.517,346.552 359.351,345.552 359.5,344.5C 361.478,338.588 363.145,332.588 364.5,326.5C 396.537,304.82 428.537,283.154 460.5,261.5C 467.833,261.5 475.167,261.5 482.5,261.5C 482.5,256.5 482.5,251.5 482.5,246.5C 492.338,240.415 502.004,234.082 511.5,227.5 Z"/></g>
<g><path style="opacity:1" fill="#f3422e" d="M 178.5,232.5 C 182.833,237.167 187.167,241.833 191.5,246.5C 145.226,277.442 99.226,308.776 53.5,340.5C 47.5,340.5 41.5,340.5 35.5,340.5C 35.5,344.5 35.5,348.5 35.5,352.5C 23.4824,360.193 11.4824,367.86 -0.5,375.5C -0.5,359.5 -0.5,343.5 -0.5,327.5C 11.5,319.5 23.5,311.5 35.5,303.5C 35.5,305.5 35.5,307.5 35.5,309.5C 47.1667,309.5 58.8333,309.5 70.5,309.5C 70.5,307.167 70.5,304.833 70.5,302.5C 105.282,279.602 139.948,256.435 174.5,233C 175.793,232.51 177.127,232.343 178.5,232.5 Z"/></g>
<g><path style="opacity:1" fill="#fefffe" d="M 58.5,241.5 C 62.5,241.5 66.5,241.5 70.5,241.5C 70.5,245.5 70.5,249.5 70.5,253.5C 70.5,256.167 70.5,258.833 70.5,261.5C 58.8333,261.5 47.1667,261.5 35.5,261.5C 35.5,259.833 35.5,258.167 35.5,256.5C 35.5,251.5 35.5,246.5 35.5,241.5C 43.1667,241.5 50.8333,241.5 58.5,241.5 Z"/></g>
<g><path style="opacity:1" fill="#fefffe" d="M 482.5,246.5 C 482.5,251.5 482.5,256.5 482.5,261.5C 475.167,261.5 467.833,261.5 460.5,261.5C 456.167,261.5 451.833,261.5 447.5,261.5C 447.5,258.167 447.5,254.833 447.5,251.5C 447.5,248.167 447.5,244.833 447.5,241.5C 459.167,241.5 470.833,241.5 482.5,241.5C 482.5,243.167 482.5,244.833 482.5,246.5 Z"/></g>
<g><path style="opacity:1" fill="#f22761" d="M 511.5,245.5 C 511.5,251.5 511.5,257.5 511.5,263.5C 497.976,271.425 484.976,280.092 472.5,289.5C 464.167,289.5 455.833,289.5 447.5,289.5C 447.5,295.167 447.5,300.833 447.5,306.5C 345.813,374.341 244.48,442.674 143.5,511.5C 134.833,511.5 126.167,511.5 117.5,511.5C 190.263,462.588 262.929,413.421 335.5,364C 326.225,364.416 316.892,364.583 307.5,364.5C 298.167,364.5 288.833,364.5 279.5,364.5C 267.5,364.5 255.5,364.5 243.5,364.5C 232.167,364.5 220.833,364.5 209.5,364.5C 199.652,364.827 189.986,364.494 180.5,363.5C 230.834,363.667 281.168,363.5 331.5,363C 343.785,361.042 353.118,354.875 359.5,344.5C 359.351,345.552 359.517,346.552 360,347.5C 410.442,313.366 460.942,279.366 511.5,245.5 Z"/></g>
<g><path style="opacity:1" fill="#f33b31" d="M 191.5,246.5 C 197.167,251.5 202.5,256.833 207.5,262.5C 207.586,263.496 207.252,264.329 206.5,265C 191.088,274.695 176.088,284.861 161.5,295.5C 152.716,294.221 147.383,297.887 145.5,306.5C 120.357,322.908 95.3566,339.575 70.5,356.5C 70.5,351.167 70.5,345.833 70.5,340.5C 64.8333,340.5 59.1667,340.5 53.5,340.5C 99.226,308.776 145.226,277.442 191.5,246.5 Z"/></g>
<g><path style="opacity:1" fill="#f22554" d="M 447.5,251.5 C 447.5,254.833 447.5,258.167 447.5,261.5C 451.833,261.5 456.167,261.5 460.5,261.5C 428.537,283.154 396.537,304.82 364.5,326.5C 364.5,319.833 364.5,313.167 364.5,306.5C 392.31,288.425 419.976,270.092 447.5,251.5 Z"/></g>
<g><path style="opacity:1" fill="#f23535" d="M 207.5,262.5 C 215.526,270.194 223.526,277.861 231.5,285.5C 231.586,286.496 231.252,287.329 230.5,288C 210.247,301.376 190.081,314.876 170,328.5C 169.829,320.323 169.329,312.323 168.5,304.5C 167.275,300.612 164.941,297.612 161.5,295.5C 176.088,284.861 191.088,274.695 206.5,265C 207.252,264.329 207.586,263.496 207.5,262.5 Z"/></g>
<g><path style="opacity:1" fill="#f2236c" d="M 511.5,263.5 C 511.5,275.167 511.5,286.833 511.5,298.5C 490.956,312.266 470.622,326.266 450.5,340.5C 448.821,340.285 447.821,340.952 447.5,342.5C 363.555,398.449 279.889,454.782 196.5,511.5C 188.5,511.5 180.5,511.5 172.5,511.5C 271.833,444.167 371.167,376.833 470.5,309.5C 474.5,309.5 478.5,309.5 482.5,309.5C 482.5,302.833 482.5,296.167 482.5,289.5C 479.167,289.5 475.833,289.5 472.5,289.5C 484.976,280.092 497.976,271.425 511.5,263.5 Z"/></g>
<g><path style="opacity:1" fill="#fefffe" d="M 56.5,289.5 C 61.1667,289.5 65.8333,289.5 70.5,289.5C 70.5,293.833 70.5,298.167 70.5,302.5C 70.5,304.833 70.5,307.167 70.5,309.5C 58.8333,309.5 47.1667,309.5 35.5,309.5C 35.5,307.5 35.5,305.5 35.5,303.5C 35.5,298.833 35.5,294.167 35.5,289.5C 42.5,289.5 49.5,289.5 56.5,289.5 Z"/></g>
<g><path style="opacity:1" fill="#fefffe" d="M 472.5,289.5 C 475.833,289.5 479.167,289.5 482.5,289.5C 482.5,296.167 482.5,302.833 482.5,309.5C 478.5,309.5 474.5,309.5 470.5,309.5C 462.833,309.5 455.167,309.5 447.5,309.5C 447.5,308.5 447.5,307.5 447.5,306.5C 447.5,300.833 447.5,295.167 447.5,289.5C 455.833,289.5 464.167,289.5 472.5,289.5 Z"/></g>
<g><path style="opacity:1" fill="#fffafa" d="M 161.5,295.5 C 164.941,297.612 167.275,300.612 168.5,304.5C 168.334,312.84 168.5,321.173 169,329.5C 170.316,334.648 173.483,337.982 178.5,339.5C 228.998,340.665 279.665,340.832 330.5,340C 334.598,338.9 337.431,336.4 339,332.5C 340.255,322.907 340.921,313.24 341,303.5C 342.332,301.34 343.832,299.34 345.5,297.5C 354.97,293.734 361.304,296.734 364.5,306.5C 364.5,313.167 364.5,319.833 364.5,326.5C 363.145,332.588 361.478,338.588 359.5,344.5C 353.118,354.875 343.785,361.042 331.5,363C 281.168,363.5 230.834,363.667 180.5,363.5C 177.763,363.599 175.096,363.265 172.5,362.5C 159.813,358.48 151.48,350.147 147.5,337.5C 145.698,327.279 145.032,316.946 145.5,306.5C 147.383,297.887 152.716,294.221 161.5,295.5 Z"/></g>
<g><path style="opacity:1" fill="#f22e51" d="M 345.5,297.5 C 343.832,299.34 342.332,301.34 341,303.5C 340.921,313.24 340.255,322.907 339,332.5C 337.431,336.4 334.598,338.9 330.5,340C 279.665,340.832 228.998,340.665 178.5,339.5C 188.167,339.5 197.833,339.5 207.5,339.5C 213.5,339.5 219.5,339.5 225.5,339.5C 232.833,339.5 240.167,339.5 247.5,339.5C 258.838,339.667 270.172,339.5 281.5,339C 301.833,325.333 322.167,311.667 342.5,298C 343.448,297.517 344.448,297.351 345.5,297.5 Z"/></g>
<g><path style="opacity:1" fill="#f23435" d="M 145.5,306.5 C 145.032,316.946 145.698,327.279 147.5,337.5C 147.986,339.807 147.986,341.973 147.5,344C 98.2852,377.388 48.9519,410.555 -0.5,443.5C -0.5,430.5 -0.5,417.5 -0.5,404.5C 21.1313,390.191 42.4646,375.524 63.5,360.5C 65.8333,360.5 68.1667,360.5 70.5,360.5C 70.5,359.167 70.5,357.833 70.5,356.5C 95.3566,339.575 120.357,322.908 145.5,306.5 Z"/></g>
<g><path style="opacity:1" fill="#f22366" d="M 447.5,306.5 C 447.5,307.5 447.5,308.5 447.5,309.5C 455.167,309.5 462.833,309.5 470.5,309.5C 371.167,376.833 271.833,444.167 172.5,511.5C 162.833,511.5 153.167,511.5 143.5,511.5C 244.48,442.674 345.813,374.341 447.5,306.5 Z"/></g>
<g><path style="opacity:1" fill="#f32277" d="M 511.5,298.5 C 511.5,309.167 511.5,319.833 511.5,330.5C 501.691,336.574 492.024,342.908 482.5,349.5C 482.5,346.5 482.5,343.5 482.5,340.5C 471.833,340.5 461.167,340.5 450.5,340.5C 470.622,326.266 490.956,312.266 511.5,298.5 Z"/></g>
<g><path style="opacity:1" fill="#f3227f" d="M 511.5,330.5 C 511.5,336.5 511.5,342.5 511.5,348.5C 430.87,402.475 350.537,456.808 270.5,511.5C 261.5,511.5 252.5,511.5 243.5,511.5C 317.5,461.167 391.5,410.833 465.5,360.5C 471.167,360.5 476.833,360.5 482.5,360.5C 482.5,356.833 482.5,353.167 482.5,349.5C 492.024,342.908 501.691,336.574 511.5,330.5 Z"/></g>
<g><path style="opacity:1" fill="#fefffe" d="M 53.5,340.5 C 59.1667,340.5 64.8333,340.5 70.5,340.5C 70.5,345.833 70.5,351.167 70.5,356.5C 70.5,357.833 70.5,359.167 70.5,360.5C 68.1667,360.5 65.8333,360.5 63.5,360.5C 54.1667,360.5 44.8333,360.5 35.5,360.5C 35.5,357.833 35.5,355.167 35.5,352.5C 35.5,348.5 35.5,344.5 35.5,340.5C 41.5,340.5 47.5,340.5 53.5,340.5 Z"/></g>
<g><path style="opacity:1" fill="#fefffe" d="M 450.5,340.5 C 461.167,340.5 471.833,340.5 482.5,340.5C 482.5,343.5 482.5,346.5 482.5,349.5C 482.5,353.167 482.5,356.833 482.5,360.5C 476.833,360.5 471.167,360.5 465.5,360.5C 459.5,360.5 453.5,360.5 447.5,360.5C 447.5,359.5 447.5,358.5 447.5,357.5C 447.5,352.5 447.5,347.5 447.5,342.5C 447.821,340.952 448.821,340.285 450.5,340.5 Z"/></g>
<g><path style="opacity:1" fill="#f32273" d="M 447.5,342.5 C 447.5,347.5 447.5,352.5 447.5,357.5C 371.623,408.599 295.957,459.932 220.5,511.5C 212.5,511.5 204.5,511.5 196.5,511.5C 279.889,454.782 363.555,398.449 447.5,342.5 Z"/></g>
<g><path style="opacity:0.997" fill="#f22f3b" d="M 147.5,337.5 C 151.48,350.147 159.813,358.48 172.5,362.5C 117.5,399.833 62.5,437.167 7.5,474.5C 3.64425,467.93 0.977582,460.93 -0.5,453.5C -0.5,450.167 -0.5,446.833 -0.5,443.5C 48.9519,410.555 98.2852,377.388 147.5,344C 147.986,341.973 147.986,339.807 147.5,337.5 Z"/></g>
<g><path style="opacity:1" fill="#f32286" d="M 511.5,348.5 C 511.5,353.5 511.5,358.5 511.5,363.5C 438.537,412.475 365.87,461.808 293.5,511.5C 285.833,511.5 278.167,511.5 270.5,511.5C 350.537,456.808 430.87,402.475 511.5,348.5 Z"/></g>
<g><path style="opacity:1" fill="#f32279" d="M 447.5,357.5 C 447.5,358.5 447.5,359.5 447.5,360.5C 453.5,360.5 459.5,360.5 465.5,360.5C 391.5,410.833 317.5,461.167 243.5,511.5C 235.833,511.5 228.167,511.5 220.5,511.5C 295.957,459.932 371.623,408.599 447.5,357.5 Z"/></g>
<g><path style="opacity:1" fill="#f33a31" d="M 35.5,352.5 C 35.5,355.167 35.5,357.833 35.5,360.5C 44.8333,360.5 54.1667,360.5 63.5,360.5C 42.4646,375.524 21.1313,390.191 -0.5,404.5C -0.5,394.833 -0.5,385.167 -0.5,375.5C 11.4824,367.86 23.4824,360.193 35.5,352.5 Z"/></g>
<g><path style="opacity:1" fill="#f2245a" d="M 117.5,511.5 C 108.833,511.5 100.167,511.5 91.5,511.5C 163.5,462.5 235.5,413.5 307.5,364.5C 316.892,364.583 326.225,364.416 335.5,364C 262.929,413.421 190.263,462.588 117.5,511.5 Z"/></g>
<g><path style="opacity:1" fill="#f4228b" d="M 511.5,363.5 C 511.5,366.833 511.5,370.167 511.5,373.5C 442.986,419.255 374.652,465.255 306.5,511.5C 302.167,511.5 297.833,511.5 293.5,511.5C 365.87,461.808 438.537,412.475 511.5,363.5 Z"/></g>
<g><path style="opacity:0.997" fill="#f22b41" d="M 172.5,362.5 C 175.096,363.265 177.763,363.599 180.5,363.5C 189.986,364.494 199.652,364.827 209.5,364.5C 146.559,406.776 83.8927,449.442 21.5,492.5C 15.3858,487.594 10.7191,481.594 7.5,474.5C 62.5,437.167 117.5,399.833 172.5,362.5 Z"/></g>
<g><path style="opacity:0.997" fill="#f22847" d="M 209.5,364.5 C 220.833,364.5 232.167,364.5 243.5,364.5C 174.833,411.167 106.167,457.833 37.5,504.5C 31.294,501.623 25.9607,497.623 21.5,492.5C 83.8927,449.442 146.559,406.776 209.5,364.5 Z"/></g>
<g><path style="opacity:0.997" fill="#f2274d" d="M 243.5,364.5 C 255.5,364.5 267.5,364.5 279.5,364.5C 206.994,413.253 134.66,462.253 62.5,511.5C 60.8333,511.5 59.1667,511.5 57.5,511.5C 50.6399,509.99 43.9732,507.656 37.5,504.5C 106.167,457.833 174.833,411.167 243.5,364.5 Z"/></g>
<g><path style="opacity:1" fill="#f22554" d="M 279.5,364.5 C 288.833,364.5 298.167,364.5 307.5,364.5C 235.5,413.5 163.5,462.5 91.5,511.5C 81.8333,511.5 72.1667,511.5 62.5,511.5C 134.66,462.253 206.994,413.253 279.5,364.5 Z"/></g>
<g><path style="opacity:1" fill="#f42292" d="M 511.5,373.5 C 511.5,375.167 511.5,376.833 511.5,378.5C 445.537,422.475 379.871,466.808 314.5,511.5C 311.833,511.5 309.167,511.5 306.5,511.5C 374.652,465.255 442.986,419.255 511.5,373.5 Z"/></g>
<g><path style="opacity:1" fill="#f42299" d="M 511.5,378.5 C 511.5,380.5 511.5,382.5 511.5,384.5C 448.451,426.351 385.784,468.684 323.5,511.5C 320.5,511.5 317.5,511.5 314.5,511.5C 379.871,466.808 445.537,422.475 511.5,378.5 Z"/></g>
<g><path style="opacity:1" fill="#f4229f" d="M 511.5,384.5 C 511.5,386.167 511.5,387.833 511.5,389.5C 451.203,429.808 391.203,470.475 331.5,511.5C 328.833,511.5 326.167,511.5 323.5,511.5C 385.784,468.684 448.451,426.351 511.5,384.5 Z"/></g>
<g><path style="opacity:1" fill="#f522a5" d="M 511.5,389.5 C 511.5,391.5 511.5,393.5 511.5,395.5C 453.813,433.674 396.48,472.341 339.5,511.5C 336.833,511.5 334.167,511.5 331.5,511.5C 391.203,470.475 451.203,429.808 511.5,389.5 Z"/></g>
<g><path style="opacity:1" fill="#f522ab" d="M 511.5,395.5 C 511.5,397.167 511.5,398.833 511.5,400.5C 456.45,437.018 401.784,474.018 347.5,511.5C 344.833,511.5 342.167,511.5 339.5,511.5C 396.48,472.341 453.813,433.674 511.5,395.5 Z"/></g>
<g><path style="opacity:1" fill="#f522b1" d="M 511.5,400.5 C 511.5,402.833 511.5,405.167 511.5,407.5C 459.813,441.674 408.479,476.341 357.5,511.5C 354.167,511.5 350.833,511.5 347.5,511.5C 401.784,474.018 456.45,437.018 511.5,400.5 Z"/></g>
<g><path style="opacity:1" fill="#f522bc" d="M 511.5,407.5 C 511.5,411.5 511.5,415.5 511.5,419.5C 465.87,449.808 420.537,480.475 375.5,511.5C 369.5,511.5 363.5,511.5 357.5,511.5C 408.479,476.341 459.813,441.674 511.5,407.5 Z"/></g>
<g><path style="opacity:1" fill="#f622c8" d="M 511.5,419.5 C 511.5,424.5 511.5,429.5 511.5,434.5C 473.623,459.932 435.956,485.599 398.5,511.5C 390.833,511.5 383.167,511.5 375.5,511.5C 420.537,480.475 465.87,449.808 511.5,419.5 Z"/></g>
<g><path style="opacity:1" fill="#f722d1" d="M 511.5,434.5 C 511.5,437.5 511.5,440.5 511.5,443.5C 477.624,465.932 443.957,488.599 410.5,511.5C 406.5,511.5 402.5,511.5 398.5,511.5C 435.956,485.599 473.623,459.932 511.5,434.5 Z"/></g>
<g><path style="opacity:0.964" fill="#f722da" d="M 511.5,443.5 C 511.5,448.5 511.5,453.5 511.5,458.5C 502.443,486.891 483.443,504.558 454.5,511.5C 439.833,511.5 425.167,511.5 410.5,511.5C 443.957,488.599 477.624,465.932 511.5,443.5 Z"/></g>
</svg>
